# xmcd CD database file
#
# Track frame offsets:
#	150
#	33380
#	64545
#
# Disc length: 1043 seconds
#
# Revision: 5
# Processed by: cddbd v1.5.1PL2 Copyright (c) Steve Scherf et al.
# Submitted via: CDex 1.60beta1
#
DISCID=1d041103
DTITLE=luvtrax - luvtrax WINTER ISSUE
DYEAR=1900
DGENRE=未分類 (日本)
TTITLE0=Phase
TTITLE1=Twist
TTITLE2=Poke
EXTD=
EXTT0=
EXTT1=
EXTT2=
PLAYORDER=
